<mxfile host="app.diagrams.net" agent="Mozilla/5.0 (Windows NT 10.0; Win64; x64) AppleWebKit/537.36 (KHTML, like Gecko) Chrome/130.0.0.0 Safari/537.36" version="25.0.3">
  <diagram name="Trang-1" id="_li6FLXtPa4dHnsSss5G">
    <mxGraphModel grid="0" page="0" gridSize="10" guides="1" tooltips="1" connect="1" arrows="1" fold="1" pageScale="1" pageWidth="827" pageHeight="1169" math="0" shadow="0">
      <root>
        <mxCell id="0" />
        <mxCell id="1" parent="0" />
        <mxCell id="JjIkbG9La5BVf3LTWZLL-2" value="" style="rounded=1;whiteSpace=wrap;html=1;" vertex="1" parent="1">
          <mxGeometry x="298" y="181" width="120" height="60" as="geometry" />
        </mxCell>
        <mxCell id="JjIkbG9La5BVf3LTWZLL-3" value="start" style="text;html=1;align=center;verticalAlign=middle;whiteSpace=wrap;rounded=0;" vertex="1" parent="1">
          <mxGeometry x="300.5" y="185.5" width="115" height="51" as="geometry" />
        </mxCell>
        <mxCell id="JjIkbG9La5BVf3LTWZLL-4" value="" style="endArrow=classic;html=1;rounded=0;exitX=0.5;exitY=1;exitDx=0;exitDy=0;" edge="1" parent="1" source="JjIkbG9La5BVf3LTWZLL-2">
          <mxGeometry width="50" height="50" relative="1" as="geometry">
            <mxPoint x="333" y="320" as="sourcePoint" />
            <mxPoint x="358" y="319" as="targetPoint" />
          </mxGeometry>
        </mxCell>
        <mxCell id="JjIkbG9La5BVf3LTWZLL-10" value="" style="edgeStyle=orthogonalEdgeStyle;rounded=0;orthogonalLoop=1;jettySize=auto;html=1;" edge="1" parent="1" source="JjIkbG9La5BVf3LTWZLL-5" target="JjIkbG9La5BVf3LTWZLL-9">
          <mxGeometry relative="1" as="geometry" />
        </mxCell>
        <mxCell id="JjIkbG9La5BVf3LTWZLL-5" value="" style="rounded=0;whiteSpace=wrap;html=1;" vertex="1" parent="1">
          <mxGeometry x="298" y="316" width="120" height="60" as="geometry" />
        </mxCell>
        <mxCell id="JjIkbG9La5BVf3LTWZLL-6" value="Khai báo biến a" style="text;html=1;align=center;verticalAlign=middle;whiteSpace=wrap;rounded=0;" vertex="1" parent="1">
          <mxGeometry x="296.5" y="316" width="119" height="60" as="geometry" />
        </mxCell>
        <mxCell id="JjIkbG9La5BVf3LTWZLL-35" value="" style="edgeStyle=orthogonalEdgeStyle;rounded=0;orthogonalLoop=1;jettySize=auto;html=1;" edge="1" parent="1" source="JjIkbG9La5BVf3LTWZLL-9" target="JjIkbG9La5BVf3LTWZLL-34">
          <mxGeometry relative="1" as="geometry" />
        </mxCell>
        <mxCell id="JjIkbG9La5BVf3LTWZLL-9" value="" style="rounded=1;whiteSpace=wrap;html=1;" vertex="1" parent="1">
          <mxGeometry x="298" y="460" width="120" height="60" as="geometry" />
        </mxCell>
        <mxCell id="JjIkbG9La5BVf3LTWZLL-23" value="if 4 &amp;lt; a &amp;lt;=6" style="text;html=1;align=center;verticalAlign=middle;whiteSpace=wrap;rounded=0;" vertex="1" parent="1">
          <mxGeometry x="362" y="415" width="82" height="30" as="geometry" />
        </mxCell>
        <mxCell id="JjIkbG9La5BVf3LTWZLL-24" value="Trung binh" style="text;html=1;align=center;verticalAlign=middle;whiteSpace=wrap;rounded=0;" vertex="1" parent="1">
          <mxGeometry x="323" y="475" width="60" height="30" as="geometry" />
        </mxCell>
        <mxCell id="JjIkbG9La5BVf3LTWZLL-38" value="" style="edgeStyle=orthogonalEdgeStyle;rounded=0;orthogonalLoop=1;jettySize=auto;html=1;" edge="1" parent="1" source="JjIkbG9La5BVf3LTWZLL-34" target="JjIkbG9La5BVf3LTWZLL-37">
          <mxGeometry relative="1" as="geometry" />
        </mxCell>
        <mxCell id="JjIkbG9La5BVf3LTWZLL-34" value="kha" style="rounded=1;whiteSpace=wrap;html=1;" vertex="1" parent="1">
          <mxGeometry x="298" y="600" width="120" height="60" as="geometry" />
        </mxCell>
        <mxCell id="JjIkbG9La5BVf3LTWZLL-36" value="if 6 &amp;lt; a &amp;lt;=8" style="text;html=1;align=center;verticalAlign=middle;whiteSpace=wrap;rounded=0;" vertex="1" parent="1">
          <mxGeometry x="367" y="543" width="77" height="30" as="geometry" />
        </mxCell>
        <mxCell id="JjIkbG9La5BVf3LTWZLL-41" value="" style="edgeStyle=orthogonalEdgeStyle;rounded=0;orthogonalLoop=1;jettySize=auto;html=1;" edge="1" parent="1" source="JjIkbG9La5BVf3LTWZLL-37" target="JjIkbG9La5BVf3LTWZLL-40">
          <mxGeometry relative="1" as="geometry" />
        </mxCell>
        <mxCell id="JjIkbG9La5BVf3LTWZLL-37" value="Gioi" style="rounded=1;whiteSpace=wrap;html=1;" vertex="1" parent="1">
          <mxGeometry x="298" y="740" width="120" height="60" as="geometry" />
        </mxCell>
        <mxCell id="JjIkbG9La5BVf3LTWZLL-39" value="if 8 &amp;lt; a &amp;lt;=9" style="text;html=1;align=center;verticalAlign=middle;whiteSpace=wrap;rounded=0;" vertex="1" parent="1">
          <mxGeometry x="362" y="685" width="75" height="30" as="geometry" />
        </mxCell>
        <mxCell id="JjIkbG9La5BVf3LTWZLL-40" value="xuat sac" style="rounded=1;whiteSpace=wrap;html=1;" vertex="1" parent="1">
          <mxGeometry x="298" y="880" width="120" height="60" as="geometry" />
        </mxCell>
        <mxCell id="JjIkbG9La5BVf3LTWZLL-42" value="if 9 &amp;lt; a &amp;lt;=10" style="text;html=1;align=center;verticalAlign=middle;whiteSpace=wrap;rounded=0;" vertex="1" parent="1">
          <mxGeometry x="364" y="829" width="84" height="30" as="geometry" />
        </mxCell>
        <mxCell id="JjIkbG9La5BVf3LTWZLL-44" value="" style="endArrow=classic;html=1;rounded=0;exitX=1;exitY=0.5;exitDx=0;exitDy=0;" edge="1" parent="1" source="JjIkbG9La5BVf3LTWZLL-6">
          <mxGeometry width="50" height="50" relative="1" as="geometry">
            <mxPoint x="432" y="354" as="sourcePoint" />
            <mxPoint x="502" y="346" as="targetPoint" />
          </mxGeometry>
        </mxCell>
        <mxCell id="JjIkbG9La5BVf3LTWZLL-45" value="khong dat" style="rounded=1;whiteSpace=wrap;html=1;" vertex="1" parent="1">
          <mxGeometry x="498" y="314" width="120" height="60" as="geometry" />
        </mxCell>
        <mxCell id="JjIkbG9La5BVf3LTWZLL-46" value="if a &amp;lt;4" style="text;html=1;align=center;verticalAlign=middle;whiteSpace=wrap;rounded=0;" vertex="1" parent="1">
          <mxGeometry x="428" y="324" width="60" height="30" as="geometry" />
        </mxCell>
      </root>
    </mxGraphModel>
  </diagram>
</mxfile>
